<svg height="512pt" viewBox="-4 0 512 512" width="512pt" xmlns="http://www.w3.org/2000/svg"><path d="m276 512c-2.207031 0-4-1.792969-4-4v-460h-40v460c0 2.207031-1.792969 4-4 4s-4-1.792969-4-4v-464c0-2.207031 1.792969-4 4-4h48c2.207031 0 4 1.792969 4 4v464c0 2.207031-1.792969 4-4 4zm0 0" fill="#263238"/><path d="m212 164h-148l-60 40 60 40h148" fill="#40c4ff"/><path d="m212 248h-148c-.792969 0-1.558594-.230469-2.214844-.671875l-60-40c-1.121094-.742187-1.785156-1.992187-1.785156-3.328125s.664062-2.585938 1.785156-3.328125l60-40c.65625-.441406 1.421875-.671875 2.214844-.671875h148c2.207031 0 4 1.792969 4 4s-1.792969 4-4 4h-146.792969l-54 36 54 36h146.792969c2.207031 0 4 1.792969 4 4s-1.792969 4-4 4zm0 0" fill="#263238"/><path d="m292 164h108l60-40-60-40h-108" fill="#ff5252"/><path d="m400 168h-108c-2.207031 0-4-1.792969-4-4s1.792969-4 4-4h106.792969l54-36-54-36h-106.792969c-2.207031 0-4-1.792969-4-4s1.792969-4 4-4h108c.792969 0 1.558594.230469 2.214844.671875l60 40c1.113281.742187 1.785156 1.992187 1.785156 3.328125s-.671875 2.585938-1.785156 3.328125l-60 40c-.65625.441406-1.421875.671875-2.214844.671875zm0 0" fill="#263238"/><path d="m292 324h148l60-40-60-40h-148" fill="#ffd740"/><g fill="#263238"><path d="m440 328h-148c-2.207031 0-4-1.792969-4-4s1.792969-4 4-4h146.792969l54-36-54-36h-146.792969c-2.207031 0-4-1.792969-4-4s1.792969-4 4-4h148c.792969 0 1.558594.230469 2.214844.671875l60 40c1.113281.742187 1.785156 1.992187 1.785156 3.328125s-.671875 2.585938-1.785156 3.328125l-60 40c-.65625.441406-1.421875.671875-2.214844.671875zm0 0"/><path d="m280 48h-56c-6.617188 0-12-5.382812-12-12v-24c0-6.617188 5.382812-12 12-12h56c6.617188 0 12 5.382812 12 12v24c0 6.617188-5.382812 12-12 12zm-56-40c-2.207031 0-4 1.800781-4 4v24c0 2.199219 1.792969 4 4 4h56c2.199219 0 4-1.800781 4-4v-24c0-2.199219-1.800781-4-4-4zm0 0"/><path d="m148 80h-32c-2.207031 0-4-1.792969-4-4s1.792969-4 4-4h32c2.207031 0 4 1.792969 4 4s-1.792969 4-4 4zm0 0"/><path d="m100 40h-32c-2.207031 0-4-1.792969-4-4s1.792969-4 4-4h32c2.207031 0 4 1.792969 4 4s-1.792969 4-4 4zm0 0"/><path d="m84 56c-2.207031 0-4-1.792969-4-4v-32c0-2.207031 1.792969-4 4-4s4 1.792969 4 4v32c0 2.207031-1.792969 4-4 4zm0 0"/><path d="m132 96c-2.207031 0-4-1.792969-4-4v-32c0-2.207031 1.792969-4 4-4s4 1.792969 4 4v32c0 2.207031-1.792969 4-4 4zm0 0"/><path d="m152 392h-92c-2.207031 0-4-1.792969-4-4s1.792969-4 4-4h92c2.207031 0 4 1.792969 4 4s-1.792969 4-4 4zm0 0"/><path d="m44 392h-16c-2.207031 0-4-1.792969-4-4s1.792969-4 4-4h16c2.207031 0 4 1.792969 4 4s-1.792969 4-4 4zm0 0"/><path d="m444 392h-92c-2.207031 0-4-1.792969-4-4s1.792969-4 4-4h92c2.207031 0 4 1.792969 4 4s-1.792969 4-4 4zm0 0"/><path d="m476 392h-16c-2.207031 0-4-1.792969-4-4s1.792969-4 4-4h16c2.207031 0 4 1.792969 4 4s-1.792969 4-4 4zm0 0"/></g></svg>